<svg width="448" height="448" viewBox="0 0 448 448" fill="none" xmlns="http://www.w3.org/2000/svg">
<path d="M192 48C192 21.5 170.5 0 144 0H48C21.5 0 0 21.5 0 48V144C0 170.5 21.5 192 48 192H144C170.5 192 192 170.5 192 144V48ZM192 304C192 277.5 170.5 256 144 256H48C21.5 256 0 277.5 0 304V400C0 426.5 21.5 448 48 448H144C170.5 448 192 426.5 192 400V304ZM256 48V144C256 170.5 277.5 192 304 192H400C426.5 192 448 170.5 448 144V48C448 21.5 426.5 0 400 0H304C277.5 0 256 21.5 256 48ZM448 304C448 277.5 426.5 256 400 256H304C277.5 256 256 277.5 256 304V400C256 426.5 277.5 448 304 448H400C426.5 448 448 426.5 448 400V304Z" fill="white"/>
</svg>
