<svg width="1446" height="1093" viewBox="0 0 1446 1093" fill="none" xmlns="http://www.w3.org/2000/svg">
<path fill-rule="evenodd" clip-rule="evenodd" d="M0.5 1092.5H298L363 903H686.5L750.5 1092.5H1046.5L665 0H384L0.5 1092.5ZM430.5 661H625.5L523.5 359.5L430.5 661Z" fill="white"/>
<path d="M1445 880V1026C1445 1026 1447 1056 1428.5 1074.5C1410 1093 1379.5 1092.5 1379.5 1092.5H1059L710.5 105V70.4995C710.5 70.4995 708 40.5 723.5 20.4995C739 0.499016 776 0.499512 776 0.499512H923.5C923.5 0.499512 962.5 0.999508 975.5 19.9995C988.5 38.9995 988.5 73.4995 988.5 73.4995V813H1378.5C1378.5 813 1414 813.5 1429.5 831C1445 848.5 1445 880 1445 880Z" fill="white"/>
</svg>
