<svg width="44" height="32" viewBox="0 0 44 32" fill="none" xmlns="http://www.w3.org/2000/svg">
<path d="M23.6 27.5C25.2667 26.6667 26.9 26.0417 28.5 25.625C30.1 25.2083 31.8 25 33.6 25C34.8667 25 36.175 25.1 37.525 25.3C38.875 25.5 40.0333 25.7667 41 26.1V4.65C39.8667 4.08333 38.6696 3.66667 37.4089 3.4C36.1481 3.13333 34.8785 3 33.6 3C31.8 3 30.0583 3.275 28.375 3.825C26.6917 4.375 25.1 5.15 23.6 6.15V27.5ZM22.1 32C20.4 30.7333 18.55 29.7583 16.55 29.075C14.55 28.3917 12.5 28.05 10.4 28.05C9.1821 28.05 7.98597 28.2 6.8116 28.5C5.6372 28.8 4.46667 29.1667 3.3 29.6C2.53 29.9667 1.7875 29.9167 1.0725 29.45C0.3575 28.9833 0 28.3167 0 27.45V4.3C0 3.8 0.116667 3.34167 0.35 2.925C0.583333 2.50833 0.933333 2.18333 1.4 1.95C2.8 1.28333 4.25658 0.791667 5.76975 0.475C7.28288 0.158333 8.8263 0 10.4 0C12.5 0 14.5417 0.283333 16.525 0.85C18.5083 1.41667 20.3667 2.28333 22.1 3.45C23.8 2.28333 25.625 1.41667 27.575 0.85C29.525 0.283333 31.5333 0 33.6 0C35.1623 0 36.6945 0.158333 38.1967 0.475C39.6989 0.791667 41.15 1.28333 42.55 1.95C43.0167 2.18333 43.375 2.50833 43.625 2.925C43.875 3.34167 44 3.8 44 4.3V27.45C44 28.3798 43.625 29.0873 42.875 29.5724C42.125 30.0575 41.3833 30.0667 40.65 29.6C39.5167 29.1333 38.3628 28.7583 37.1884 28.475C36.014 28.1917 34.8179 28.05 33.6 28.05C31.5 28.05 29.4833 28.4 27.55 29.1C25.6167 29.8 23.8 30.7667 22.1 32Z" fill="black"/>
</svg>
