<svg width="496" height="416" viewBox="0 0 496 416" fill="none" xmlns="http://www.w3.org/2000/svg">
<path d="M24 0C10.7 0 0 10.7 0 24V72C0 85.3 10.7 96 24 96H72C85.3 96 96 85.3 96 72V24C96 10.7 85.3 0 72 0H24ZM176 16C158.3 16 144 30.3 144 48C144 65.7 158.3 80 176 80H464C481.7 80 496 65.7 496 48C496 30.3 481.7 16 464 16H176ZM176 176C158.3 176 144 190.3 144 208C144 225.7 158.3 240 176 240H464C481.7 240 496 225.7 496 208C496 190.3 481.7 176 464 176H176ZM176 336C158.3 336 144 350.3 144 368C144 385.7 158.3 400 176 400H464C481.7 400 496 385.7 496 368C496 350.3 481.7 336 464 336H176ZM0 184V232C0 245.3 10.7 256 24 256H72C85.3 256 96 245.3 96 232V184C96 170.7 85.3 160 72 160H24C10.7 160 0 170.7 0 184ZM24 320C10.7 320 0 330.7 0 344V392C0 405.3 10.7 416 24 416H72C85.3 416 96 405.3 96 392V344C96 330.7 85.3 320 72 320H24Z" fill="white"/>
</svg>
