<svg width="512" height="512" viewBox="0 0 512 512" fill="none" xmlns="http://www.w3.org/2000/svg">
<mask id="mask0_151_60" style="mask-type:luminance" maskUnits="userSpaceOnUse" x="0" y="0" width="512" height="512">
<path d="M512 256C512 114.615 397.385 0 256 0C114.615 0 0 114.615 0 256C0 397.385 114.615 512 256 512C397.385 512 512 397.385 512 256Z" fill="white"/>
</mask>
<g mask="url(#mask0_151_60)">
<path d="M640 -128H-128V256H640V-128Z" fill="#8ECAE6"/>
<path d="M640 256H-128V640H640V256Z" fill="#023047"/>
<path d="M256 428.26C351.137 428.26 428.26 351.137 428.26 256C428.26 160.863 351.137 83.74 256 83.74C160.863 83.74 83.74 160.863 83.74 256C83.74 351.137 160.863 428.26 256 428.26Z" fill="#219EBC"/>
<path d="M307.83 302.42C312.034 307.324 314.393 313.542 314.5 320C314.5 330.32 308.07 337.41 306.67 338.82L5.47 640H-128V-128H400.45L152.18 120.28C143.26 129.28 122.51 154.14 122.5 191.99C122.5 202.21 124.77 237.72 154.06 265.56C180.48 290.66 211.69 293.46 223.88 293.5H287.74C289.49 293.54 300.4 294.1 307.83 302.42Z" fill="#19212D"/>
<path d="M640 -128V640H111.55L359.77 391.77L359.87 391.67C368.77 382.67 389.48 357.76 389.5 320.02C389.5 308.38 387.02 278.5 363.77 252.47C336.01 221.38 299.05 218.61 288.38 218.47H224.07C222.17 218.47 212.95 218.03 205.73 211.16C197.73 203.56 197.5 193.16 197.5 191.98C197.643 184.978 200.412 178.285 205.26 173.23L506.53 -128H640Z" fill="#19212D"/>
<path d="M314 238.7L238 194.81C234.961 193.055 231.514 192.131 228.005 192.13C224.496 192.13 221.049 193.052 218.009 194.805C214.969 196.558 212.444 199.08 210.687 202.117C208.93 205.155 208.004 208.601 208 212.11V299.89C208.004 303.399 208.93 306.845 210.687 309.883C212.444 312.92 214.969 315.442 218.009 317.195C221.049 318.948 224.496 319.87 228.005 319.87C231.514 319.869 234.961 318.945 238 317.19L314 273.3C317.031 271.542 319.546 269.018 321.295 265.982C323.044 262.946 323.965 259.504 323.965 256C323.965 252.496 323.044 249.054 321.295 246.018C319.546 242.982 317.031 240.458 314 238.7Z" fill="#E9E7FF"/>
</g>
</svg>
