<svg width="41" height="29" viewBox="0 0 41 29" fill="none" xmlns="http://www.w3.org/2000/svg">
<path fill-rule="evenodd" clip-rule="evenodd" d="M3.38464 10.4103C1.72779 10.4103 0.384644 11.7534 0.384644 13.4103V26C0.384644 27.6569 1.72779 29 3.38464 29H27.1282C28.7851 29 30.1282 27.6569 30.1282 26V13.4103C30.1282 11.7534 28.7851 10.4103 27.1282 10.4103H3.38464ZM19.7052 20.1993C20.3719 19.8144 20.3719 18.8522 19.7052 18.4673L13.7822 15.0476C13.1155 14.6627 12.2822 15.1438 12.2822 15.9136V22.753C12.2822 23.5228 13.1155 24.0039 13.7822 23.619L19.7052 20.1993Z" fill="white"/>
<path d="M7.82049 5.20515C7.82049 5.20515 5.58972 5.20515 5.58972 7.06412C5.58972 8.9231 7.82049 8.9231 7.82049 8.9231H29.3846C30.6165 8.9231 31.6154 9.92184 31.6154 11.1539V21.5641C31.6154 21.5641 31.6154 23.7949 33.4743 23.7949C35.3333 23.7949 35.3333 21.5641 35.3333 21.5641L35.282 10.5128C35.282 7.359 33.1795 5.25643 30.0256 5.20515H7.82049Z" fill="white"/>
<path d="M13.0256 0C13.0256 0 10.7948 0 10.7948 1.85897C10.7948 3.71795 13.0256 3.71795 13.0256 3.71795H34.5897C35.8216 3.71795 36.8204 4.71669 36.8204 5.94872V16.359C36.8204 16.359 36.8204 18.5897 38.6794 18.5897C40.5384 18.5897 40.5384 16.359 40.5384 16.359V6.30769C40.5384 2.10256 38.4359 0 34.2307 0H13.0256Z" fill="white"/>
</svg>
